<svg width="52" height="42" viewBox="0 0 52 42" fill="none" xmlns="http://www.w3.org/2000/svg">
<path d="M49.9528 7.26132C49.6829 6.0334 49.133 4.90834 48.3589 3.99976C47.5848 3.09118 46.6138 2.43127 45.544 2.08668C41.6351 1 25.9995 1 25.9995 1C25.9995 1 10.364 1 6.45507 2.19017C5.38524 2.53476 4.41422 3.19467 3.6401 4.10325C2.86598 5.01183 2.31617 6.1369 2.04621 7.36481C1.33083 11.8811 0.980894 16.4626 1.00081 21.0517C0.975311 25.6754 1.32527 30.2919 2.04621 34.8422C2.34383 36.0319 2.90595 37.1142 3.67827 37.9844C4.45059 38.8546 5.40699 39.4833 6.45507 39.8098C10.364 41 25.9995 41 25.9995 41C25.9995 41 41.6351 41 45.544 39.8098C46.6138 39.4652 47.5848 38.8053 48.3589 37.8968C49.133 36.9882 49.6829 35.8631 49.9528 34.6352C50.6627 30.1529 51.0126 25.6063 50.9982 21.0517C51.0237 16.4281 50.6738 11.8116 49.9528 7.26132V7.26132Z" stroke="black" stroke-width="2" stroke-linecap="round" stroke-linejoin="round"/>
<path d="M20.8861 29.5123L33.9536 21.0517L20.8861 12.5912V29.5123Z" stroke="black" stroke-width="2" stroke-linecap="round" stroke-linejoin="round"/>
</svg>
